<svg width="24.000000" height="20.000000" viewBox="0 0 24 20" fill="none" xmlns="http://www.w3.org/2000/svg" xmlns:xlink="http://www.w3.org/1999/xlink">
	<desc>
			Created with Pixso.
	</desc>
	<defs/>
	<path d="M12 0C5.37 0 0 4.47 0 10C0 14.23 3.16 17.85 7.62 19.31C7.52 18.52 7.42 17.3 7.66 16.44C7.88 15.66 9.07 11.47 9.07 11.47C9.07 11.47 8.71 10.87 8.71 9.98C8.71 8.59 9.68 7.56 10.88 7.56C11.91 7.56 12.4 8.2 12.4 8.96C12.4 9.82 11.75 11.1 11.41 12.29C11.12 13.29 12.01 14.1 13.18 14.1C15.32 14.1 16.96 12.23 16.96 9.52C16.96 7.13 14.89 5.45 11.94 5.45C8.53 5.45 6.53 7.59 6.53 9.79C6.53 10.65 6.92 11.57 7.42 12.07C7.52 12.17 7.53 12.26 7.5 12.36L7.17 13.49C7.12 13.68 7 13.72 6.77 13.63C5.27 13.05 4.33 11.22 4.33 9.75C4.33 6.6 7.08 3.7 12.26 3.7C16.42 3.7 19.66 6.18 19.66 9.48C19.66 12.93 17.05 15.7 13.43 15.7C12.22 15.7 11.07 15.17 10.68 14.55L9.93 16.93C9.66 17.8 8.93 18.89 8.44 19.55C9.57 19.84 10.76 20 12 20C18.62 20 24 15.52 24 10C24 4.47 18.62 0 12 0Z" fill="#FFFFFF" fill-opacity="1.000000" fill-rule="nonzero"/>
</svg>
